<svg xmlns="http://www.w3.org/2000/svg" xmlns:xlink="http://www.w3.org/1999/xlink" width="70" zoomAndPan="magnify" viewBox="0 0 52.5 51.749998" height="69" preserveAspectRatio="xMidYMid meet" version="1.0"><defs><clipPath id="08f034a8ed"><path d="M 0 0.121094 L 51.332031 0.121094 L 51.332031 51.152344 L 0 51.152344 Z M 0 0.121094 " clip-rule="nonzero"/></clipPath><clipPath id="34c1fc2a9d"><path d="M 0 0.121094 L 51.332031 0.121094 L 51.332031 51.152344 L 0 51.152344 Z M 0 0.121094 " clip-rule="nonzero"/></clipPath><clipPath id="f84d0fe5fc"><rect x="0" width="52" y="0" height="52"/></clipPath><clipPath id="775511d1df"><path d="M 4.882812 6.113281 L 34.597656 6.113281 L 34.597656 43 L 4.882812 43 Z M 4.882812 6.113281 " clip-rule="nonzero"/></clipPath></defs><g clip-path="url(#08f034a8ed)"><g transform="matrix(1, 0, 0, 1, 0, -0.00000000000000315)"><g clip-path="url(#f84d0fe5fc)"><g clip-path="url(#34c1fc2a9d)"><path fill="#502d16" d="M 0 0.121094 L 51.429688 0.121094 L 51.429688 51.152344 L 0 51.152344 Z M 0 0.121094 " fill-opacity="1" fill-rule="nonzero"/></g></g></g></g><path fill="#ffffff" d="M 22.578125 9.0625 L 16.679688 9.0625 C 16.273438 9.0625 15.941406 9.390625 15.941406 9.796875 C 15.941406 10.207031 16.273438 10.535156 16.679688 10.535156 L 22.578125 10.535156 C 22.988281 10.535156 23.316406 10.207031 23.316406 9.796875 C 23.316406 9.390625 22.988281 9.0625 22.578125 9.0625 Z M 22.578125 9.0625 " fill-opacity="1" fill-rule="nonzero"/><g clip-path="url(#775511d1df)"><path fill="#ffffff" d="M 32.164062 7.585938 L 27.003906 7.585938 C 27.003906 6.777344 26.339844 6.113281 25.527344 6.113281 L 13.730469 6.113281 C 12.921875 6.113281 12.257812 6.777344 12.257812 7.585938 L 7.09375 7.585938 C 5.878906 7.585938 4.882812 8.582031 4.882812 9.796875 L 4.882812 40.765625 C 4.882812 41.984375 5.878906 42.980469 7.09375 42.980469 L 32.164062 42.980469 C 33.382812 42.980469 34.378906 41.984375 34.378906 40.765625 L 34.378906 9.796875 C 34.378906 8.582031 33.382812 7.585938 32.164062 7.585938 Z M 13.730469 7.585938 L 25.527344 7.585938 L 25.527344 12.011719 L 13.730469 12.011719 Z M 32.902344 40.765625 C 32.902344 41.171875 32.570312 41.503906 32.164062 41.503906 L 7.09375 41.503906 C 6.691406 41.503906 6.359375 41.171875 6.359375 40.765625 L 6.359375 9.796875 C 6.359375 9.394531 6.691406 9.0625 7.09375 9.0625 L 12.257812 9.0625 L 12.257812 10.535156 L 8.570312 10.535156 C 8.164062 10.535156 7.832031 10.867188 7.832031 11.273438 L 7.832031 34.132812 C 7.832031 34.332031 7.914062 34.515625 8.046875 34.65625 L 13.207031 39.816406 C 13.347656 39.949219 13.53125 40.03125 13.730469 40.03125 L 30.691406 40.03125 C 31.097656 40.03125 31.425781 39.699219 31.425781 39.292969 L 31.425781 27.496094 C 31.425781 27.089844 31.097656 26.757812 30.691406 26.757812 C 30.285156 26.757812 29.953125 27.089844 29.953125 27.496094 L 29.953125 38.554688 L 14.46875 38.554688 L 14.46875 34.132812 C 14.46875 33.726562 14.136719 33.394531 13.730469 33.394531 L 9.308594 33.394531 L 9.308594 12.011719 L 12.257812 12.011719 C 12.257812 12.820312 12.921875 13.484375 13.730469 13.484375 L 25.527344 13.484375 C 26.339844 13.484375 27.003906 12.820312 27.003906 12.011719 L 29.953125 12.011719 L 29.953125 21.597656 C 29.953125 22 30.285156 22.332031 30.691406 22.332031 C 31.097656 22.332031 31.425781 22 31.425781 21.597656 L 31.425781 11.273438 C 31.425781 10.867188 31.097656 10.535156 30.691406 10.535156 L 27.003906 10.535156 L 27.003906 9.0625 L 32.164062 9.0625 C 32.570312 9.0625 32.902344 9.394531 32.902344 9.796875 Z M 10.347656 34.867188 L 12.992188 34.867188 L 12.992188 37.515625 Z M 10.347656 34.867188 " fill-opacity="1" fill-rule="nonzero"/></g><path fill="#ffffff" d="M 27.742188 29.707031 L 24.511719 29.707031 L 25.449219 27.828125 C 25.632812 27.457031 25.484375 27.015625 25.125 26.839844 C 24.753906 26.65625 24.3125 26.800781 24.136719 27.164062 L 22.859375 29.707031 L 20.085938 29.707031 L 18.8125 27.164062 C 18.632812 26.800781 18.191406 26.65625 17.824219 26.839844 C 17.460938 27.015625 17.316406 27.457031 17.5 27.828125 L 18.433594 29.707031 L 15.207031 29.707031 C 14.800781 29.707031 14.46875 30.039062 14.46875 30.445312 C 14.46875 30.851562 14.800781 31.183594 15.207031 31.183594 L 16.03125 31.183594 L 16.6875 36.433594 C 16.730469 36.800781 17.050781 37.082031 17.417969 37.082031 L 25.527344 37.082031 C 25.898438 37.082031 26.214844 36.800781 26.257812 36.433594 L 26.914062 31.183594 L 27.742188 31.183594 C 28.144531 31.183594 28.476562 30.851562 28.476562 30.445312 C 28.476562 30.039062 28.144531 29.707031 27.742188 29.707031 Z M 20.734375 35.605469 L 18.066406 35.605469 L 17.882812 34.132812 L 20.734375 34.132812 Z M 20.734375 32.65625 L 17.699219 32.65625 L 17.515625 31.183594 L 20.734375 31.183594 Z M 24.878906 35.605469 L 22.210938 35.605469 L 22.210938 34.132812 L 25.0625 34.132812 Z M 25.25 32.65625 L 22.210938 32.65625 L 22.210938 31.183594 L 25.433594 31.183594 Z M 25.25 32.65625 " fill-opacity="1" fill-rule="nonzero"/><path fill="#ffffff" d="M 11.953125 18.398438 C 12.242188 18.726562 12.761719 18.726562 13.054688 18.398438 L 15.019531 16.1875 C 15.289062 15.882812 15.261719 15.417969 14.957031 15.144531 C 14.652344 14.875 14.1875 14.902344 13.917969 15.207031 L 12.503906 16.800781 L 12.070312 16.3125 C 11.800781 16.007812 11.332031 15.984375 11.027344 16.253906 C 10.726562 16.523438 10.699219 16.988281 10.96875 17.292969 C 10.96875 17.292969 11.949219 18.398438 11.953125 18.398438 Z M 11.953125 18.398438 " fill-opacity="1" fill-rule="nonzero"/><path fill="#ffffff" d="M 11.953125 22.824219 C 12.242188 23.148438 12.765625 23.148438 13.054688 22.824219 L 15.019531 20.613281 C 15.289062 20.308594 15.261719 19.839844 14.957031 19.570312 C 14.652344 19.300781 14.1875 19.328125 13.917969 19.632812 L 12.503906 21.222656 L 12.070312 20.738281 C 11.800781 20.433594 11.332031 20.40625 11.027344 20.675781 C 10.726562 20.945312 10.699219 21.414062 10.96875 21.71875 C 10.96875 21.71875 11.949219 22.824219 11.953125 22.824219 Z M 11.953125 22.824219 " fill-opacity="1" fill-rule="nonzero"/><path fill="#ffffff" d="M 14.957031 23.996094 C 14.652344 23.722656 14.1875 23.75 13.917969 24.054688 L 12.503906 25.648438 L 12.070312 25.160156 C 11.800781 24.859375 11.332031 24.832031 11.027344 25.101562 C 10.726562 25.371094 10.699219 25.835938 10.96875 26.140625 C 10.96875 26.140625 11.949219 27.246094 11.953125 27.246094 C 12.242188 27.574219 12.761719 27.574219 13.054688 27.246094 L 15.019531 25.035156 C 15.289062 24.730469 15.261719 24.265625 14.957031 23.996094 Z M 14.957031 23.996094 " fill-opacity="1" fill-rule="nonzero"/><path fill="#ffffff" d="M 27.742188 14.960938 L 17.417969 14.960938 C 17.011719 14.960938 16.679688 15.289062 16.679688 15.699219 C 16.679688 16.105469 17.011719 16.433594 17.417969 16.433594 L 27.742188 16.433594 C 28.148438 16.433594 28.476562 16.105469 28.476562 15.699219 C 28.476562 15.289062 28.148438 14.960938 27.742188 14.960938 Z M 27.742188 14.960938 " fill-opacity="1" fill-rule="nonzero"/><path fill="#ffffff" d="M 27.742188 19.382812 L 17.417969 19.382812 C 17.011719 19.382812 16.679688 19.714844 16.679688 20.121094 C 16.679688 20.527344 17.011719 20.859375 17.417969 20.859375 L 27.742188 20.859375 C 28.148438 20.859375 28.476562 20.527344 28.476562 20.121094 C 28.476562 19.714844 28.148438 19.382812 27.742188 19.382812 Z M 27.742188 19.382812 " fill-opacity="1" fill-rule="nonzero"/><path fill="#ffffff" d="M 27.742188 23.808594 L 17.417969 23.808594 C 17.011719 23.808594 16.679688 24.136719 16.679688 24.546875 C 16.679688 24.953125 17.011719 25.28125 17.417969 25.28125 L 27.742188 25.28125 C 28.148438 25.28125 28.476562 24.953125 28.476562 24.546875 C 28.476562 24.136719 28.148438 23.808594 27.742188 23.808594 Z M 27.742188 23.808594 " fill-opacity="1" fill-rule="nonzero"/><path fill="#ffffff" d="M 31.425781 24.546875 C 31.425781 24.75 31.355469 24.921875 31.210938 25.066406 C 31.066406 25.210938 30.894531 25.28125 30.691406 25.28125 C 30.488281 25.28125 30.3125 25.210938 30.167969 25.066406 C 30.023438 24.921875 29.953125 24.75 29.953125 24.546875 C 29.953125 24.34375 30.023438 24.167969 30.167969 24.023438 C 30.3125 23.878906 30.488281 23.808594 30.691406 23.808594 C 30.894531 23.808594 31.066406 23.878906 31.210938 24.023438 C 31.355469 24.167969 31.425781 24.34375 31.425781 24.546875 Z M 31.425781 24.546875 " fill-opacity="1" fill-rule="nonzero"/></svg>